<svg xmlns="http://www.w3.org/2000/svg" height="329" width="329.26933" style=""><rect id="backgroundrect" width="100%" height="100%" x="0" y="0" fill="none" stroke="none"/><g class="currentLayer" style=""><title>Layer 1</title><g fill="#04b804" id="svg_1" class="selected" fill-opacity="1"><path d="m21.339844 329.398438c-5.460938 0-10.925782-2.089844-15.082032-6.25-8.34375-8.339844-8.34375-21.824219 0-30.164063l286.589844-286.59375c8.339844-8.339844 21.824219-8.339844 30.164063 0 8.34375 8.339844 8.34375 21.824219 0 30.164063l-286.589844 286.59375c-4.183594 4.179687-9.621094 6.25-15.082031 6.25zm0 0" id="svg_2" fill="#04b804" fill-opacity="1"/><path d="m307.929688 329.398438c-5.460938 0-10.921876-2.089844-15.082032-6.25l-286.589844-286.59375c-8.34375-8.339844-8.34375-21.824219 0-30.164063 8.339844-8.339844 21.820313-8.339844 30.164063 0l286.589844 286.59375c8.34375 8.339844 8.34375 21.824219 0 30.164063-4.160157 4.179687-9.621094 6.25-15.082031 6.25zm0 0" id="svg_3" fill="#04b804" fill-opacity="1"/></g></g></svg>